<?xml version="1.0" standalone="no"?><!DOCTYPE svg PUBLIC "-//W3C//DTD SVG 1.1//EN" "http://www.w3.org/Graphics/SVG/1.1/DTD/svg11.dtd"><svg height="1024" node-id="1" sillyvg="true" template-height="1024" template-width="1024" version="1.1" viewBox="0 0 1024 1024" width="1024" xmlns="http://www.w3.org/2000/svg" xmlns:xlink="http://www.w3.org/1999/xlink"><defs node-id="71"><linearGradient gradientUnits="objectBoundingBox" id="linearGradient-1" node-id="5" spreadMethod="pad" x1="0.7053671" x2="0.3058451" y1="0.9525347" y2="0.09729988"><stop offset="0" stop-color="#fff1cf"></stop><stop offset="1" stop-color="#ffffff" stop-opacity="0"></stop></linearGradient><linearGradient gradientUnits="objectBoundingBox" id="linearGradient-2" node-id="8" spreadMethod="pad" x1="0.27142859" x2="0.5" y1="0.3285714" y2="1"><stop offset="0" stop-color="#f0c544"></stop><stop offset="1" stop-color="#f0bf44" stop-opacity="0"></stop></linearGradient><linearGradient gradientUnits="objectBoundingBox" id="linearGradient-3" node-id="11" spreadMethod="pad" x1="0.2291667" x2="0.75" y1="0.31249997" y2="0.7291666"><stop offset="0" stop-color="#f0bb44"></stop><stop offset="1" stop-color="#f0bd44" stop-opacity="0"></stop></linearGradient><linearGradient gradientUnits="objectBoundingBox" id="linearGradient-4" node-id="14" spreadMethod="pad" x1="0.5" x2="0.5" y1="-0.00000000000000003061617" y2="1"><stop offset="0" stop-color="#f0b944"></stop><stop offset="1" stop-color="#f0a444" stop-opacity="0"></stop></linearGradient><linearGradient gradientUnits="objectBoundingBox" id="linearGradient-5" node-id="17" spreadMethod="pad" x1="0.5" x2="0.5" y1="-0.00000000000000003061617" y2="1"><stop offset="0" stop-color="#f0c243"></stop><stop offset="1" stop-color="#f0bb43" stop-opacity="0"></stop></linearGradient><linearGradient gradientUnits="objectBoundingBox" id="linearGradient-6" node-id="20" spreadMethod="pad" x1="0.5" x2="0.5" y1="-0.00000000000000003061617" y2="1"><stop offset="0" stop-color="#f0c443"></stop><stop offset="1" stop-color="#f0bc43" stop-opacity="0"></stop></linearGradient><linearGradient gradientUnits="objectBoundingBox" id="linearGradient-7" node-id="23" spreadMethod="pad" x1="0.5" x2="0.5" y1="-0.00000000000000003061617" y2="1"><stop offset="0" stop-color="#f0b943"></stop><stop offset="1" stop-color="#f0c143" stop-opacity="0"></stop></linearGradient><linearGradient gradientUnits="objectBoundingBox" id="linearGradient-8" node-id="26" spreadMethod="pad" x1="0.5" x2="0.5" y1="-0.00000000000000003061617" y2="1"><stop offset="0" stop-color="#f0bb44"></stop><stop offset="1" stop-color="#f0c744" stop-opacity="0"></stop></linearGradient><linearGradient gradientUnits="objectBoundingBox" id="linearGradient-9" node-id="29" spreadMethod="pad" x1="0.50204545" x2="0.50204545" y1="0.000000000000000030616175" y2="1"><stop offset="0" stop-color="#ffecb5"></stop><stop offset="1" stop-color="#f4d07f"></stop></linearGradient><linearGradient gradientUnits="objectBoundingBox" id="linearGradient-10" node-id="32" spreadMethod="pad" x1="0.5" x2="0.5" y1="-0.00000000000000003061617" y2="0.9892459"><stop offset="0" stop-color="#ffe9b5"></stop><stop offset="1" stop-color="#f7be45"></stop></linearGradient></defs><path d="M 812.00 512.50 C 812.00 677.91 677.91 812.00 512.50 812.00 C 347.09 812.00 213.00 677.91 213.00 512.50 C 213.00 347.09 347.09 213.00 512.50 213.00 C 677.91 213.00 812.00 347.09 812.00 512.50 Z" fill="url(#linearGradient-1)" fill-rule="nonzero" id="椭圆形" node-id="36" stroke="none" target-height="599" target-width="599" target-x="213" target-y="213"></path><g node-id="132"><path d="M 239.14 401.44 L 239.77 400.64 L 240.65 400.39 L 241.53 400.64 L 242.16 401.44 L 242.83 403.26 L 244.44 407.60 L 246.36 412.79 L 247.97 417.13 L 248.64 418.95 L 249.01 419.53 L 249.59 419.91 L 251.41 420.58 L 255.76 422.19 L 260.94 424.11 L 265.29 425.71 L 267.11 426.39 L 267.91 427.02 L 268.16 427.90 L 267.91 428.78 L 267.11 429.41 L 265.29 430.08 L 260.94 431.69 L 255.76 433.61 L 251.41 435.22 L 249.59 435.89 L 249.01 436.26 L 248.64 436.84 L 247.97 438.66 L 246.36 443.01 L 244.44 448.19 L 242.83 452.54 L 242.16 454.36 L 241.53 455.16 L 240.65 455.41 L 239.77 455.16 L 239.14 454.36 L 238.46 452.54 L 236.86 448.19 L 234.94 443.01 L 233.33 438.66 L 232.66 436.84 L 232.28 436.26 L 231.70 435.89 L 229.88 435.22 L 225.54 433.61 L 220.35 431.69 L 216.01 430.08 L 214.19 429.41 L 213.39 428.78 L 213.13 427.90 L 213.39 427.02 L 214.19 426.39 L 216.01 425.71 L 220.35 424.11 L 225.54 422.19 L 229.88 420.58 L 231.70 419.91 L 232.28 419.53 L 232.66 418.95 L 233.33 417.13 L 234.94 412.79 L 236.86 407.60 L 238.46 403.26 L 239.14 401.44 Z" fill="url(#linearGradient-2)" fill-rule="nonzero" group-id="1" id="路径" node-id="38" stroke="none" target-height="55.02588" target-width="55.02588" target-x="213.13483" target-y="400.3852"></path><path d="M 633.79 161.39 L 634.42 160.59 L 635.30 160.34 L 636.18 160.59 L 636.81 161.39 L 637.36 162.88 L 638.68 166.44 L 640.25 170.68 L 641.56 174.23 L 642.11 175.72 L 642.49 176.30 L 643.07 176.67 L 644.56 177.23 L 648.11 178.54 L 652.35 180.11 L 655.91 181.43 L 657.40 181.98 L 658.19 182.61 L 658.45 183.49 L 658.19 184.37 L 657.40 185.00 L 655.91 185.55 L 652.35 186.87 L 648.11 188.44 L 644.56 189.75 L 643.07 190.30 L 642.49 190.67 L 642.11 191.25 L 641.56 192.75 L 640.25 196.30 L 638.68 200.54 L 637.36 204.10 L 636.81 205.59 L 636.18 206.38 L 635.30 206.64 L 634.42 206.38 L 633.79 205.59 L 633.24 204.10 L 631.92 200.54 L 630.35 196.30 L 629.04 192.75 L 628.49 191.25 L 628.11 190.67 L 627.53 190.30 L 626.04 189.75 L 622.49 188.44 L 618.25 186.87 L 614.69 185.55 L 613.20 185.00 L 612.40 184.37 L 612.15 183.49 L 612.40 182.61 L 613.20 181.98 L 614.69 181.43 L 618.25 180.11 L 622.49 178.54 L 626.04 177.23 L 627.53 176.67 L 628.11 176.30 L 628.49 175.72 L 629.04 174.23 L 630.35 170.68 L 631.92 166.44 L 633.24 162.88 L 633.79 161.39 Z" fill="url(#linearGradient-3)" fill-rule="nonzero" group-id="1" id="路径" node-id="39" stroke="none" target-height="46.298843" target-width="46.298767" target-x="612.1501" target-y="160.33922"></path><path d="M 786.50 514.05 L 787.13 513.25 L 788.00 513.00 L 788.87 513.25 L 789.50 514.05 L 790.17 515.86 L 791.85 520.39 L 794.03 526.27 L 796.21 532.16 L 797.88 536.69 L 798.55 538.50 L 798.92 539.08 L 799.50 539.45 L 801.31 540.12 L 805.84 541.80 L 811.73 543.97 L 817.61 546.15 L 822.14 547.83 L 823.95 548.50 L 824.75 549.13 L 825.00 550.00 L 824.75 550.87 L 823.95 551.50 L 822.14 552.17 L 817.61 553.85 L 811.73 556.03 L 805.84 558.21 L 801.31 559.88 L 799.50 560.55 L 798.92 560.92 L 798.55 561.50 L 797.88 563.31 L 796.20 567.84 L 794.03 573.73 L 791.85 579.61 L 790.17 584.14 L 789.50 585.95 L 788.87 586.75 L 788.00 587.00 L 787.13 586.75 L 786.50 585.95 L 785.83 584.14 L 784.15 579.61 L 781.97 573.73 L 779.80 567.84 L 778.12 563.31 L 777.45 561.50 L 777.08 560.92 L 776.50 560.55 L 774.69 559.88 L 770.16 558.20 L 764.27 556.03 L 758.39 553.85 L 753.86 552.17 L 752.05 551.50 L 751.25 550.87 L 751.00 550.00 L 751.25 549.13 L 752.05 548.50 L 753.86 547.83 L 758.39 546.15 L 764.27 543.97 L 770.16 541.80 L 774.69 540.12 L 776.50 539.45 L 777.08 539.08 L 777.45 538.50 L 778.12 536.69 L 779.79 532.16 L 781.97 526.27 L 784.15 520.39 L 785.83 515.86 L 786.50 514.05 Z" fill="url(#linearGradient-4)" fill-rule="nonzero" group-id="1" id="路径" node-id="40" stroke="none" target-height="74" target-width="74" target-x="751" target-y="513"></path><path d="M 292.00 655.50 L 291.70 658.69 L 290.90 661.62 L 289.61 664.33 L 287.87 666.79 L 285.79 668.87 L 283.33 670.61 L 280.62 671.90 L 277.69 672.70 L 274.50 673.00 L 271.31 672.70 L 268.38 671.90 L 265.67 670.61 L 263.21 668.87 L 261.13 666.79 L 259.39 664.33 L 258.10 661.62 L 257.30 658.69 L 257.00 655.50 L 257.30 652.31 L 258.10 649.38 L 259.39 646.67 L 261.13 644.21 L 263.21 642.13 L 265.67 640.39 L 268.38 639.10 L 271.31 638.30 L 274.50 638.00 L 277.69 638.30 L 280.62 639.10 L 283.33 640.39 L 285.79 642.13 L 287.87 644.21 L 289.61 646.67 L 290.90 649.38 L 291.70 652.31 L 292.00 655.50 Z" fill="#ffffff" fill-rule="nonzero" group-id="1" id="椭圆形" node-id="41" stroke="none" target-height="35" target-width="35" target-x="257" target-y="638"></path><path d="M 287.96 655.50 L 287.73 657.96 L 287.12 660.21 L 286.12 662.29 L 284.79 664.18 L 283.18 665.79 L 281.29 667.12 L 279.21 668.12 L 276.96 668.73 L 274.50 668.96 L 272.04 668.73 L 269.79 668.12 L 267.71 667.12 L 265.82 665.79 L 264.21 664.18 L 262.88 662.29 L 261.88 660.21 L 261.27 657.96 L 261.04 655.50 L 261.27 653.04 L 261.88 650.79 L 262.88 648.71 L 264.21 646.82 L 265.82 645.21 L 267.71 643.88 L 269.79 642.88 L 272.04 642.27 L 274.50 642.04 L 276.96 642.27 L 279.21 642.88 L 281.29 643.88 L 283.18 645.21 L 284.79 646.82 L 286.12 648.71 L 287.12 650.79 L 287.73 653.04 L 287.96 655.50 Z" fill="none" group-id="1" id="椭圆形" node-id="42" stroke="url(#linearGradient-5)" stroke-linecap="butt" stroke-width="5" target-height="26.92273" target-width="26.92273" target-x="261.03864" target-y="642.03864"></path><path d="M 430.00 282.00 L 429.76 284.56 L 429.12 286.90 L 428.09 289.07 L 426.70 291.03 L 425.03 292.70 L 423.07 294.09 L 420.90 295.12 L 418.56 295.76 L 416.00 296.00 L 413.44 295.76 L 411.10 295.12 L 408.93 294.09 L 406.97 292.70 L 405.30 291.03 L 403.91 289.07 L 402.88 286.90 L 402.24 284.56 L 402.00 282.00 L 402.24 279.44 L 402.88 277.10 L 403.91 274.93 L 405.30 272.97 L 406.97 271.30 L 408.93 269.91 L 411.10 268.88 L 413.44 268.24 L 416.00 268.00 L 418.56 268.24 L 420.90 268.88 L 423.07 269.91 L 425.03 271.30 L 426.70 272.97 L 428.09 274.93 L 429.12 277.10 L 429.76 279.44 L 430.00 282.00 Z" fill="#ffffff" fill-rule="nonzero" group-id="1" id="椭圆形" node-id="43" stroke="none" target-height="28" target-width="28" target-x="402" target-y="268"></path><path d="M 425.96 282.00 L 425.79 283.82 L 425.34 285.48 L 424.60 287.03 L 423.61 288.43 L 422.43 289.61 L 421.03 290.60 L 419.48 291.34 L 417.82 291.79 L 416.00 291.96 L 414.18 291.79 L 412.52 291.34 L 410.97 290.60 L 409.57 289.61 L 408.39 288.43 L 407.40 287.03 L 406.66 285.48 L 406.21 283.82 L 406.04 282.00 L 406.21 280.18 L 406.66 278.52 L 407.40 276.97 L 408.39 275.57 L 409.57 274.39 L 410.97 273.40 L 412.52 272.66 L 414.18 272.21 L 416.00 272.04 L 417.82 272.21 L 419.48 272.66 L 421.03 273.40 L 422.43 274.39 L 423.61 275.57 L 424.60 276.97 L 425.34 278.52 L 425.79 280.18 L 425.96 282.00 Z" fill="none" group-id="1" id="椭圆形" node-id="44" stroke="url(#linearGradient-6)" stroke-linecap="butt" stroke-width="5" target-height="19.92273" target-width="19.92273" target-x="406.03864" target-y="272.03864"></path><path d="M 753.00 722.50 L 752.77 725.62 L 752.18 728.53 L 751.24 731.27 L 749.93 733.86 L 748.29 736.27 L 746.41 738.41 L 744.27 740.29 L 741.86 741.93 L 739.27 743.24 L 736.53 744.18 L 733.62 744.77 L 730.50 745.00 L 727.38 744.77 L 724.47 744.18 L 721.73 743.24 L 719.14 741.93 L 716.73 740.29 L 714.59 738.41 L 712.71 736.27 L 711.07 733.86 L 709.76 731.27 L 708.82 728.53 L 708.23 725.62 L 708.00 722.50 L 708.23 719.38 L 708.82 716.47 L 709.76 713.73 L 711.07 711.14 L 712.71 708.73 L 714.59 706.59 L 716.73 704.71 L 719.14 703.07 L 721.73 701.76 L 724.47 700.82 L 727.38 700.23 L 730.50 700.00 L 733.62 700.23 L 736.53 700.82 L 739.27 701.76 L 741.86 703.07 L 744.27 704.71 L 746.41 706.59 L 748.29 708.73 L 749.93 711.14 L 751.24 713.73 L 752.18 716.47 L 752.77 719.38 L 753.00 722.50 Z" fill="#ffffff" fill-rule="nonzero" group-id="1" id="椭圆形" node-id="45" stroke="none" target-height="45" target-width="45" target-x="708" target-y="700"></path><path d="M 748.98 722.50 L 748.67 725.87 L 747.83 728.96 L 746.46 731.83 L 744.62 734.42 L 742.42 736.62 L 739.83 738.46 L 736.96 739.83 L 733.87 740.67 L 730.50 740.98 L 727.13 740.67 L 724.04 739.83 L 721.17 738.46 L 718.58 736.62 L 716.38 734.42 L 714.54 731.83 L 713.17 728.96 L 712.33 725.87 L 712.02 722.50 L 712.33 719.13 L 713.17 716.03 L 714.54 713.17 L 716.38 710.58 L 718.58 708.38 L 721.17 706.54 L 724.04 705.17 L 727.13 704.33 L 730.50 704.02 L 733.87 704.33 L 736.96 705.17 L 739.83 706.54 L 742.42 708.38 L 744.62 710.58 L 746.46 713.17 L 747.83 716.03 L 748.67 719.13 L 748.98 722.50 Z" fill="none" group-id="1" id="椭圆形" node-id="46" stroke="url(#linearGradient-7)" stroke-linecap="butt" stroke-width="5" target-height="36.964294" target-width="36.964294" target-x="712.0178" target-y="704.0179"></path><path d="M 707.48 311.45 L 708.59 310.44 L 709.86 309.84 L 711.25 309.64 L 712.63 309.84 L 713.91 310.44 L 715.02 311.45 L 715.94 312.60 L 718.13 315.32 L 720.74 318.58 L 722.92 321.31 L 723.84 322.45 L 724.52 323.60 L 724.86 324.73 L 724.89 325.90 L 724.43 327.57 L 723.42 328.98 L 722.49 329.68 L 721.39 330.13 L 720.07 330.31 L 718.24 330.31 L 713.86 330.31 L 708.64 330.31 L 704.26 330.31 L 702.43 330.31 L 701.11 330.13 L 700.01 329.68 L 699.08 328.98 L 698.07 327.57 L 697.60 325.90 L 697.63 324.73 L 697.97 323.60 L 698.65 322.45 L 699.57 321.31 L 701.76 318.58 L 704.37 315.32 L 706.56 312.60 L 707.48 311.45 Z" fill="url(#linearGradient-8)" fill-rule="nonzero" group-id="1" id="路径" node-id="47" stroke="none" target-height="20.669983" target-width="27.29004" target-x="697.6033" target-y="309.6419"></path></g><g node-id="133"><path d="M 459.00 715.00 L 461.75 715.00 L 468.85 715.00 L 478.56 715.00 L 489.14 715.00 L 498.85 715.00 L 505.95 715.00 L 508.70 715.00 L 510.10 708.23 L 513.98 689.51 L 519.84 661.22 L 527.19 625.77 L 535.52 585.54 L 544.35 542.91 L 553.18 500.29 L 561.52 460.06 L 568.86 424.60 L 574.72 396.32 L 578.60 377.60 L 580.00 370.83 L 577.36 370.28 L 570.55 368.88 L 561.24 366.96 L 551.10 364.87 L 541.79 362.95 L 534.99 361.54 L 532.35 361.00 L 531.11 366.96 L 527.67 383.56 L 522.43 408.86 L 515.79 440.92 L 508.14 477.82 L 499.90 517.62 L 491.45 558.38 L 483.20 598.18 L 475.56 635.08 L 468.92 667.14 L 463.67 692.44 L 460.24 709.04 L 459.00 715.00 Z" fill="#cca138" fill-rule="nonzero" group-id="2" id="路径" node-id="49" stroke="none" target-height="354" target-width="121" target-x="459" target-y="361"></path><path d="M 570.00 369.36 L 571.56 369.62 L 575.00 370.18 L 578.44 370.74 L 580.00 371.00 L 578.62 370.06 L 575.59 368.00 L 572.56 365.94 L 571.18 365.00 L 570.87 366.13 L 570.31 368.23 L 570.00 369.36 Z" fill="#cca138" fill-rule="nonzero" group-id="2" id="路径" node-id="50" stroke="none" target-height="6" target-width="10" target-x="570" target-y="365"></path><path d="M 451.00 709.00 L 453.74 709.00 L 460.81 709.00 L 470.48 709.00 L 481.01 709.00 L 490.68 709.00 L 497.75 709.00 L 500.49 709.00 L 501.88 702.24 L 505.72 683.54 L 511.51 655.29 L 518.77 619.87 L 527.01 579.69 L 535.75 537.11 L 544.48 494.54 L 552.72 454.35 L 559.98 418.94 L 565.78 390.69 L 569.61 371.99 L 571.00 365.23 L 568.40 364.66 L 561.69 363.20 L 552.52 361.20 L 542.52 359.03 L 533.35 357.03 L 526.64 355.57 L 524.04 355.00 L 522.81 360.96 L 519.38 377.56 L 514.16 402.86 L 507.55 434.92 L 499.94 471.82 L 491.72 511.62 L 483.31 552.38 L 475.10 592.18 L 467.49 629.08 L 460.87 661.14 L 455.65 686.44 L 452.23 703.04 L 451.00 709.00 Z" fill="url(#linearGradient-9)" fill-rule="nonzero" group-id="2" id="路径" node-id="51" stroke="none" target-height="354" target-width="120" target-x="451" target-y="355"></path><path d="M 365.47 537.30 L 364.15 536.12 L 361.24 533.51 L 358.32 530.90 L 357.00 529.72 L 358.08 526.14 L 360.99 516.56 L 365.20 502.68 L 370.19 486.23 L 375.44 468.92 L 380.43 452.47 L 384.64 438.59 L 387.54 429.00 L 388.63 425.43 L 390.07 425.52 L 393.52 425.75 L 397.63 426.02 L 401.07 426.24 L 402.51 426.34 L 400.29 425.15 L 394.98 422.33 L 388.64 418.96 L 383.33 416.13 L 381.10 414.95 L 381.78 411.57 L 383.53 402.87 L 385.92 390.96 L 388.53 377.99 L 390.92 366.08 L 392.67 357.38 L 393.35 354.00 L 399.23 355.21 L 415.51 358.57 L 440.09 363.64 L 470.91 370.00 L 505.88 377.21 L 542.93 384.85 L 579.98 392.49 L 614.95 399.70 L 645.77 406.06 L 670.35 411.13 L 686.62 414.48 L 692.51 415.70 L 693.84 416.88 L 696.75 419.50 L 699.67 422.11 L 701.00 423.30 L 700.31 426.62 L 698.54 435.18 L 696.12 446.89 L 693.48 459.65 L 691.05 471.36 L 689.28 479.93 L 688.59 483.25 L 686.13 483.29 L 680.25 483.40 L 673.23 483.53 L 667.35 483.64 L 664.89 483.68 L 666.93 484.07 L 671.41 484.93 L 675.90 485.79 L 677.93 486.18 L 679.26 487.36 L 682.17 489.97 L 685.08 492.58 L 686.41 493.76 L 685.66 497.37 L 683.66 507.04 L 680.76 521.04 L 677.33 537.65 L 673.71 555.11 L 670.28 571.72 L 667.38 585.72 L 665.38 595.39 L 664.63 599.00 L 658.75 597.79 L 642.47 594.43 L 617.89 589.36 L 587.07 583.00 L 552.10 575.79 L 515.05 568.15 L 478.00 560.51 L 443.03 553.30 L 412.22 546.94 L 387.63 541.87 L 371.36 538.52 L 365.47 537.30 Z" fill="#cca138" fill-rule="nonzero" group-id="2" id="路径" node-id="52" stroke="none" target-height="245" target-width="344" target-x="357" target-y="354"></path><path d="M 357.00 530.15 L 357.79 526.30 L 359.92 516.00 L 362.99 501.07 L 366.64 483.38 L 370.48 464.76 L 374.13 447.06 L 377.20 432.14 L 379.33 421.83 L 380.12 417.98 L 381.56 418.08 L 385.00 418.30 L 389.10 418.57 L 392.54 418.80 L 393.98 418.89 L 392.78 417.64 L 389.91 414.65 L 386.49 411.08 L 383.62 408.09 L 382.41 406.84 L 383.02 403.91 L 384.57 396.36 L 386.70 386.04 L 389.01 374.80 L 391.14 364.48 L 392.69 356.93 L 393.29 354.00 L 399.17 355.22 L 415.42 358.58 L 439.97 363.66 L 470.74 370.03 L 505.65 377.26 L 542.65 384.92 L 579.64 392.58 L 614.56 399.81 L 645.33 406.18 L 669.87 411.27 L 686.12 414.63 L 692.00 415.85 L 691.31 419.18 L 689.54 427.76 L 687.12 439.50 L 684.49 452.29 L 682.07 464.03 L 680.30 472.62 L 679.61 475.94 L 677.15 475.99 L 671.29 476.10 L 664.29 476.23 L 658.42 476.34 L 655.96 476.38 L 658.20 477.43 L 663.53 479.94 L 669.88 482.94 L 675.21 485.45 L 677.45 486.50 L 676.70 490.12 L 674.70 499.82 L 671.81 513.85 L 668.38 530.50 L 664.77 548.01 L 661.34 564.65 L 658.45 578.69 L 656.45 588.38 L 655.71 592.00 L 649.83 590.78 L 633.58 587.42 L 609.03 582.34 L 578.26 575.97 L 543.35 568.74 L 506.35 561.08 L 469.36 553.42 L 434.44 546.19 L 403.67 539.82 L 379.13 534.73 L 362.88 531.37 L 357.00 530.15 Z" fill="url(#linearGradient-10)" fill-rule="nonzero" group-id="2" id="路径" node-id="53" stroke="none" target-height="238" target-width="335" target-x="357" target-y="354"></path><path d="M 663.00 476.00 L 662.29 476.00 L 661.75 475.96 L 660.74 475.89 L 660.19 475.85 L 658.93 475.75 L 656.16 475.52 L 653.39 475.30 L 652.13 475.19 L 651.22 475.11 L 649.22 474.93 L 647.22 474.76 L 646.31 474.68 L 645.23 474.55 L 642.85 474.26 L 640.47 473.98 L 639.39 473.85 L 631.45 472.88 L 622.59 471.61 L 621.06 471.38 L 617.71 470.87 L 614.35 470.36 L 612.83 470.12 L 602.30 468.29 L 591.20 466.20 L 579.14 463.75 L 553.70 458.02 L 526.52 451.32 L 490.82 441.93 L 458.75 433.42 L 431.52 426.44 L 415.10 422.44 L 408.32 420.84 L 402.62 419.55 L 401.39 419.27 L 398.68 418.63 L 395.97 418.00 L 394.74 417.72 L 394.21 417.59 L 393.22 417.35 L 392.69 417.22 L 392.00 417.00 L 392.71 417.11 L 393.25 417.21 L 394.25 417.40 L 394.79 417.50 L 396.03 417.75 L 398.75 418.29 L 401.47 418.84 L 402.71 419.09 L 415.23 421.81 L 431.76 425.65 L 459.03 432.46 L 491.12 440.86 L 526.83 450.20 L 553.99 456.92 L 579.38 462.72 L 602.50 467.35 L 613.01 469.19 L 614.53 469.43 L 617.87 469.97 L 621.21 470.50 L 622.73 470.75 L 631.58 472.10 L 639.50 473.15 L 640.58 473.30 L 642.95 473.61 L 645.32 473.93 L 646.40 474.07 L 647.30 474.17 L 649.30 474.37 L 651.29 474.58 L 652.20 474.68 L 653.46 474.82 L 656.22 475.12 L 658.99 475.42 L 660.25 475.56 L 660.78 475.63 L 661.79 475.75 L 662.33 475.82 L 662.66 475.91 L 663.00 476.00 Z" fill="#b58924" fill-opacity="0.1" fill-rule="nonzero" group-id="2" id="路径" node-id="54" stroke="none" target-height="59" target-width="271" target-x="392" target-y="417"></path><path d="M 678.00 467.00 L 677.33 466.56 L 676.85 466.20 L 675.98 465.54 L 675.51 465.19 L 668.22 459.87 L 659.11 453.72 L 649.78 447.95 L 640.20 442.57 L 629.29 437.09 L 618.16 432.13 L 606.83 427.69 L 595.27 423.77 L 583.75 420.51 L 572.15 417.79 L 560.46 415.62 L 548.66 414.00 L 536.75 412.92 L 526.21 412.42 L 515.95 412.38 L 505.79 412.65 L 495.99 413.08 L 477.04 413.86 L 468.32 414.00 L 459.61 413.83 L 450.90 413.33 L 441.64 412.31 L 432.48 410.82 L 423.40 408.85 L 414.44 406.40 L 405.62 403.49 L 396.93 400.11 L 388.77 396.45 L 388.23 396.17 L 387.23 395.66 L 386.69 395.38 L 386.35 395.19 L 386.00 395.00 L 386.75 395.29 L 387.30 395.54 L 388.33 396.00 L 388.88 396.25 L 397.09 399.76 L 404.80 402.67 L 412.60 405.22 L 420.51 407.42 L 428.53 409.28 L 435.97 410.65 L 443.45 411.71 L 450.97 412.46 L 459.64 412.92 L 468.32 413.06 L 477.00 412.89 L 495.93 412.06 L 505.75 411.61 L 515.93 411.33 L 526.23 411.36 L 536.82 411.86 L 548.79 412.95 L 560.64 414.59 L 572.37 416.79 L 584.02 419.54 L 595.58 422.85 L 607.17 426.84 L 618.52 431.34 L 629.66 436.38 L 640.59 441.95 L 650.14 447.39 L 659.43 453.24 L 668.47 459.50 L 672.59 462.63 L 675.58 465.00 L 676.05 465.38 L 676.93 466.09 L 677.40 466.47 L 678.00 467.00 Z" fill="#b58924" fill-opacity="0.1" fill-rule="nonzero" group-id="2" id="路径" node-id="55" stroke="none" target-height="72" target-width="292" target-x="386" target-y="395"></path><path d="M 533.00 386.18 L 531.60 386.66 L 530.54 386.97 L 528.57 387.55 L 527.51 387.86 L 520.99 389.57 L 516.89 390.54 L 512.26 391.51 L 507.14 392.45 L 501.58 393.30 L 489.24 394.86 L 479.75 395.59 L 470.26 395.95 L 460.75 395.96 L 451.24 395.53 L 441.77 394.76 L 432.32 393.64 L 425.91 392.63 L 420.06 391.54 L 409.49 389.21 L 400.86 386.89 L 394.42 384.92 L 393.38 384.56 L 391.43 383.90 L 390.38 383.54 L 389.00 383.00 L 390.46 383.32 L 391.52 383.63 L 393.49 384.20 L 394.55 384.51 L 401.03 386.30 L 405.11 387.37 L 409.67 388.46 L 420.24 390.65 L 432.47 392.64 L 441.87 393.70 L 451.29 394.44 L 460.75 394.85 L 470.21 394.84 L 479.67 394.51 L 489.11 393.84 L 495.54 393.16 L 501.41 392.39 L 512.08 390.59 L 520.81 388.80 L 527.36 387.27 L 528.43 387.02 L 530.42 386.54 L 531.49 386.28 L 533.00 386.18 Z" fill="#b58924" fill-opacity="0.1" fill-rule="nonzero" group-id="2" id="路径" node-id="56" stroke="none" target-height="12.958038" target-width="144" target-x="389" target-y="383"></path><path d="M 453.76 493.04 L 455.10 493.84 L 456.12 494.47 L 458.02 495.63 L 459.04 496.26 L 465.44 500.15 L 474.33 505.18 L 480.58 508.37 L 486.98 511.11 L 493.56 513.40 L 500.33 515.25 L 504.47 516.02 L 508.65 516.52 L 510.85 516.61 L 513.01 516.33 L 515.09 515.69 L 517.06 514.70 L 518.17 513.67 L 519.00 512.47 L 519.57 511.06 L 519.87 508.76 L 519.57 506.46 L 518.66 504.17 L 517.38 502.10 L 515.76 500.28 L 513.84 498.76 L 508.07 495.13 L 501.88 491.67 L 495.24 488.37 L 488.13 485.23 L 480.98 482.46 L 473.48 479.96 L 465.61 477.72 L 457.35 475.75 L 449.10 474.17 L 440.57 472.95 L 431.75 472.10 L 422.62 471.62 L 415.81 471.51 L 408.86 471.62 L 405.37 471.93 L 402.03 472.72 L 399.94 473.58 L 398.05 474.77 L 396.35 476.31 L 395.31 477.64 L 394.54 479.15 L 394.09 480.78 L 393.97 482.47 L 394.38 484.75 L 395.22 486.83 L 396.52 488.76 L 398.93 491.37 L 401.70 493.69 L 407.73 497.86 L 415.99 503.38 L 424.48 508.82 L 433.17 514.04 L 442.15 518.99 L 451.38 523.54 L 460.98 527.64 L 468.42 530.34 L 475.87 532.57 L 483.35 534.35 L 490.87 535.69 L 498.48 536.55 L 505.99 536.85 L 513.41 536.61 L 520.77 535.83 L 527.94 534.46 L 534.97 532.48 L 538.30 531.28 L 541.40 529.62 L 544.23 527.54 L 546.75 525.06 L 548.60 522.13 L 549.93 518.97 L 550.72 515.64 L 550.96 512.19 L 550.77 508.77 L 550.22 505.45 L 549.30 502.22 L 548.01 499.05 L 545.84 495.21 L 543.36 491.62 L 540.55 488.27 L 537.44 485.20 L 534.07 482.43 L 530.42 479.95 L 524.98 476.86 L 519.38 474.20 L 513.59 471.94 L 507.61 470.11 L 501.80 468.53 L 496.09 467.14 L 484.89 464.65 L 482.70 464.15 L 477.47 462.97 L 471.24 461.56 L 466.02 460.37 L 463.83 459.88 L 460.30 459.08 L 451.22 457.01 L 438.81 454.20 L 425.28 451.12 L 412.87 448.30 L 403.79 446.24 L 400.27 445.44 L 398.47 445.03 L 394.19 444.04 L 389.08 442.86 L 384.80 441.87 L 383.01 441.46 L 381.85 441.18 L 379.69 440.67 L 378.53 440.40 L 377.00 440.00 L 377.77 440.15 L 378.55 440.29 L 379.72 440.54 L 381.89 440.99 L 383.06 441.24 L 384.86 441.63 L 389.16 442.57 L 394.28 443.69 L 398.58 444.63 L 400.38 445.02 L 403.90 445.80 L 412.99 447.82 L 425.42 450.57 L 438.96 453.57 L 451.39 456.32 L 460.48 458.33 L 464.01 459.11 L 466.20 459.60 L 471.42 460.76 L 477.66 462.16 L 482.88 463.32 L 485.07 463.81 L 496.28 466.32 L 502.01 467.70 L 507.87 469.27 L 513.92 471.12 L 519.77 473.38 L 525.45 476.07 L 530.95 479.19 L 534.68 481.71 L 538.13 484.53 L 541.31 487.67 L 544.18 491.08 L 546.72 494.74 L 548.94 498.66 L 550.28 501.94 L 551.23 505.28 L 551.80 508.71 L 552.00 512.24 L 551.76 515.87 L 550.93 519.37 L 549.53 522.69 L 547.59 525.77 L 544.97 528.37 L 542.02 530.55 L 538.79 532.29 L 535.32 533.56 L 530.58 534.97 L 525.79 536.11 L 520.92 536.96 L 514.30 537.70 L 507.61 538.00 L 500.84 537.84 L 494.08 537.27 L 487.32 536.30 L 480.53 534.93 L 473.82 533.20 L 467.18 531.14 L 460.58 528.73 L 450.95 524.63 L 441.67 520.07 L 432.66 515.11 L 423.95 509.88 L 415.43 504.42 L 407.19 498.88 L 401.11 494.61 L 398.28 492.22 L 395.75 489.47 L 394.33 487.36 L 393.41 485.07 L 392.97 482.56 L 393.11 480.67 L 393.61 478.84 L 394.47 477.15 L 395.64 475.66 L 397.48 474.01 L 399.53 472.73 L 401.81 471.80 L 405.30 470.99 L 408.86 470.63 L 415.87 470.50 L 422.72 470.63 L 431.90 471.14 L 440.77 472.01 L 449.34 473.26 L 457.62 474.86 L 465.92 476.86 L 473.82 479.13 L 481.36 481.67 L 488.54 484.47 L 495.68 487.64 L 502.35 490.99 L 508.58 494.50 L 514.38 498.17 L 516.40 499.80 L 518.09 501.72 L 519.43 503.91 L 520.37 506.33 L 520.69 508.82 L 520.37 511.32 L 519.74 512.86 L 518.82 514.17 L 517.59 515.28 L 515.52 516.33 L 513.32 517.01 L 511.04 517.31 L 508.72 517.23 L 504.49 516.70 L 500.29 515.90 L 493.50 514.00 L 486.91 511.66 L 480.49 508.86 L 474.24 505.60 L 465.37 500.49 L 459.02 496.50 L 455.16 493.99 L 453.76 493.04 Z" fill="#b58924" fill-opacity="0.1" fill-rule="nonzero" group-id="2" id="路径" node-id="57" stroke="none" target-height="97.99835" target-width="174.99695" target-x="377" target-y="440"></path><path d="M 672.00 512.64 L 670.18 512.29 L 665.18 511.28 L 658.94 510.70 L 652.72 510.75 L 646.50 511.42 L 639.66 512.82 L 633.01 514.70 L 626.50 517.05 L 620.14 519.88 L 610.11 525.25 L 600.35 531.03 L 590.84 537.24 L 581.26 543.46 L 571.40 549.21 L 561.27 554.49 L 554.79 557.26 L 548.18 559.51 L 541.42 561.25 L 534.49 562.48 L 529.75 562.92 L 525.04 562.98 L 520.34 562.66 L 515.64 561.95 L 513.14 561.38 L 510.68 560.65 L 509.00 560.03 L 510.73 560.43 L 515.71 561.54 L 521.93 562.22 L 528.14 562.28 L 534.38 561.70 L 541.23 560.41 L 547.91 558.62 L 554.44 556.34 L 560.83 553.56 L 570.89 548.26 L 580.69 542.52 L 590.22 536.31 L 599.78 530.09 L 609.61 524.30 L 619.70 518.96 L 626.14 516.13 L 632.73 513.80 L 639.47 511.97 L 646.39 510.64 L 651.12 510.14 L 655.83 510.00 L 660.53 510.24 L 665.25 510.86 L 667.83 511.37 L 670.38 512.04 L 672.00 512.64 Z" fill="#b58924" fill-opacity="0.1" fill-rule="nonzero" group-id="2" id="路径" node-id="58" stroke="none" target-height="52.973053" target-width="163" target-x="509" target-y="510.004"></path><path d="M 667.00 541.53 L 665.96 541.26 L 662.94 540.47 L 659.18 539.89 L 655.42 539.77 L 651.63 540.10 L 646.10 541.29 L 640.72 542.95 L 635.48 545.09 L 629.20 548.03 L 623.06 551.25 L 617.07 554.76 L 607.74 560.26 L 603.18 562.80 L 598.79 565.03 L 593.57 567.38 L 588.20 569.32 L 582.69 570.85 L 578.89 571.55 L 575.07 571.93 L 571.20 571.98 L 568.08 571.71 L 567.00 571.51 L 568.09 571.46 L 571.20 571.51 L 575.02 571.30 L 578.78 570.82 L 582.52 570.04 L 587.94 568.42 L 593.22 566.43 L 598.35 564.06 L 602.66 561.82 L 607.18 559.27 L 616.49 553.75 L 622.53 550.21 L 628.73 546.99 L 635.10 544.08 L 640.44 541.97 L 645.92 540.36 L 651.55 539.26 L 655.43 539.00 L 659.26 539.24 L 663.07 539.99 L 666.05 541.00 L 667.00 541.53 Z" fill="#b58924" fill-opacity="0.1" fill-rule="nonzero" group-id="2" id="路径" node-id="59" stroke="none" target-height="32.98285" target-width="100" target-x="567" target-y="539.00055"></path><path d="M 570.00 390.97 L 569.59 390.98 L 566.49 390.50 L 557.28 388.73 L 544.38 386.03 L 531.51 383.19 L 522.39 381.04 L 519.37 380.20 L 519.00 380.02 L 519.47 380.02 L 522.57 380.51 L 531.75 382.27 L 544.62 384.96 L 557.46 387.81 L 566.55 389.96 L 569.58 390.79 L 570.00 390.97 Z" fill="#b58924" fill-opacity="0.1" fill-rule="nonzero" group-id="2" id="路径" node-id="60" stroke="none" target-height="10.959259" target-width="50.998962" target-x="519.00104" target-y="380.02267"></path><path d="M 486.96 459.97 L 485.50 459.65 L 482.29 458.95 L 479.08 458.25 L 477.62 457.93 L 477.21 459.82 L 476.31 463.97 L 475.41 468.11 L 475.00 470.00 L 473.19 469.61 L 468.89 468.67 L 463.75 467.55 L 459.44 466.62 L 457.64 466.23 L 458.05 464.34 L 458.95 460.18 L 459.85 456.03 L 460.25 454.14 L 457.79 453.60 L 451.63 452.25 L 443.63 450.49 L 435.62 448.74 L 429.46 447.39 L 427.00 446.85 L 427.39 445.03 L 428.26 441.03 L 429.13 437.03 L 429.53 435.22 L 431.56 433.38 L 436.82 428.63 L 444.00 422.14 L 451.83 415.07 L 459.02 408.59 L 464.27 403.84 L 466.31 402.00 L 468.23 402.42 L 472.80 403.41 L 478.26 404.60 L 482.83 405.59 L 484.75 406.01 L 482.88 407.74 L 478.08 412.21 L 471.51 418.32 L 464.35 424.98 L 457.78 431.09 L 452.97 435.56 L 451.11 437.29 L 453.10 437.73 L 457.47 438.68 L 461.85 439.63 L 463.84 440.07 L 464.20 438.39 L 465.00 434.71 L 465.80 431.02 L 466.16 429.35 L 467.91 429.73 L 472.08 430.63 L 477.06 431.71 L 481.23 432.61 L 482.98 432.99 L 482.62 434.67 L 481.82 438.36 L 481.02 442.05 L 480.65 443.73 L 482.11 444.05 L 485.33 444.75 L 488.54 445.45 L 490.00 445.77 L 489.68 447.25 L 488.93 450.77 L 488.03 454.97 L 487.28 458.50 L 486.96 459.97 Z" fill="#ffffff" fill-rule="nonzero" group-id="2" id="路径" node-id="61" stroke="none" target-height="68" target-width="63" target-x="427" target-y="402"></path><path d="M 495.16 441.44 L 496.58 436.23 L 498.33 431.71 L 500.36 427.82 L 502.66 424.47 L 505.44 421.39 L 508.39 418.89 L 511.55 416.93 L 514.93 415.46 L 518.49 414.49 L 522.20 414.04 L 526.08 414.10 L 530.18 414.72 L 534.16 415.86 L 537.72 417.41 L 540.89 419.36 L 543.72 421.71 L 546.17 424.45 L 548.21 427.55 L 549.85 431.05 L 551.08 435.01 L 551.78 439.00 L 552.00 443.39 L 551.70 448.21 L 550.83 453.54 L 549.40 458.75 L 547.65 463.26 L 545.62 467.15 L 543.31 470.50 L 540.54 473.58 L 537.59 476.09 L 534.44 478.06 L 531.06 479.53 L 527.51 480.50 L 523.82 480.96 L 519.96 480.90 L 515.88 480.29 L 511.92 479.15 L 508.38 477.60 L 505.21 475.65 L 502.37 473.29 L 499.90 470.54 L 497.85 467.44 L 496.19 463.94 L 494.94 459.98 L 494.23 455.98 L 494.00 451.60 L 494.29 446.77 L 495.16 441.44 Z M 532.88 449.64 L 533.66 445.20 L 533.97 441.62 L 533.90 438.77 L 533.45 435.96 L 532.70 433.81 L 531.70 432.19 L 530.37 430.85 L 528.82 429.90 L 527.02 429.31 L 525.13 429.09 L 523.33 429.31 L 521.55 429.98 L 519.96 431.04 L 518.37 432.67 L 516.77 435.03 L 515.50 437.60 L 514.27 440.98 L 513.11 445.34 L 512.30 449.79 L 511.99 453.37 L 512.06 456.22 L 512.53 459.03 L 513.29 461.18 L 514.31 462.81 L 515.67 464.16 L 517.24 465.12 L 519.08 465.71 L 520.99 465.93 L 522.81 465.71 L 524.58 465.05 L 526.15 463.98 L 527.73 462.34 L 529.30 459.97 L 530.54 457.41 L 531.74 454.02 L 532.88 449.64 Z" fill="#ffffff" fill-rule="nonzero" group-id="2" id="形状" node-id="62" stroke="none" target-height="66.921265" target-width="58.00171" target-x="493.99902" target-y="414.03882"></path><path d="M 611.98 486.97 L 610.52 486.65 L 607.31 485.95 L 604.09 485.24 L 602.63 484.93 L 602.22 486.81 L 601.32 490.96 L 600.42 495.11 L 600.01 497.00 L 598.21 496.60 L 593.89 495.65 L 588.75 494.51 L 584.44 493.56 L 582.63 493.16 L 583.04 491.27 L 583.95 487.12 L 584.85 482.97 L 585.26 481.08 L 582.80 480.54 L 576.64 479.19 L 568.63 477.44 L 560.62 475.69 L 554.46 474.34 L 552.00 473.80 L 552.39 471.98 L 553.26 467.99 L 554.13 464.00 L 554.53 462.18 L 556.57 460.34 L 561.82 455.60 L 569.00 449.12 L 576.83 442.06 L 584.01 435.58 L 589.27 430.84 L 591.30 429.00 L 593.22 429.42 L 597.79 430.43 L 603.25 431.63 L 607.83 432.64 L 609.74 433.06 L 607.88 434.79 L 603.08 439.25 L 596.51 445.35 L 589.35 452.00 L 582.78 458.10 L 577.98 462.56 L 576.12 464.29 L 578.11 464.73 L 582.48 465.69 L 586.86 466.64 L 588.85 467.08 L 589.21 465.40 L 590.01 461.72 L 590.81 458.03 L 591.17 456.35 L 592.92 456.73 L 597.09 457.64 L 602.06 458.71 L 606.23 459.62 L 607.98 460.00 L 607.62 461.67 L 606.82 465.35 L 606.02 469.03 L 605.65 470.70 L 607.11 471.02 L 610.33 471.72 L 613.54 472.42 L 615.00 472.74 L 614.69 474.22 L 613.94 477.75 L 613.04 481.96 L 612.29 485.49 L 611.98 486.97 Z" fill="#ffffff" fill-rule="nonzero" group-id="2" id="路径" node-id="63" stroke="none" target-height="68" target-width="63" target-x="552" target-y="429"></path><path d="M 473.57 505.00 L 473.34 506.04 L 472.90 507.96 L 472.66 509.00 L 470.72 508.54 L 466.09 507.44 L 460.57 506.13 L 455.94 505.04 L 454.00 504.58 L 454.43 502.68 L 455.51 497.95 L 456.91 491.79 L 458.31 485.63 L 459.39 480.89 L 459.83 479.00 L 461.72 479.45 L 466.22 480.54 L 471.60 481.83 L 476.11 482.91 L 478.00 483.37 L 477.76 484.40 L 477.32 486.32 L 477.09 487.35 L 475.68 487.01 L 472.32 486.20 L 468.32 485.23 L 464.96 484.43 L 463.55 484.09 L 463.32 485.13 L 462.79 487.41 L 462.27 489.70 L 462.03 490.74 L 463.91 491.19 L 468.03 492.19 L 472.16 493.19 L 474.04 493.65 L 473.81 494.66 L 473.39 496.54 L 473.16 497.56 L 471.28 497.10 L 467.15 496.11 L 463.01 495.12 L 461.13 494.66 L 460.88 495.77 L 460.33 498.19 L 459.77 500.62 L 459.52 501.72 L 460.98 502.06 L 464.47 502.88 L 468.63 503.85 L 472.11 504.66 L 473.57 505.00 Z" fill="#ffffff" fill-rule="nonzero" group-id="2" id="路径" node-id="64" stroke="none" target-height="30" target-width="24" target-x="454" target-y="479"></path><path d="M 494.37 513.90 L 493.84 512.57 L 492.67 509.65 L 491.51 506.72 L 490.98 505.39 L 490.01 505.19 L 489.13 504.99 L 487.18 504.54 L 485.24 504.08 L 484.36 503.88 L 484.09 505.00 L 483.50 507.48 L 482.91 509.95 L 482.65 511.08 L 481.44 510.80 L 479.20 510.28 L 478.00 510.00 L 478.61 507.40 L 480.07 501.20 L 481.80 493.80 L 483.26 487.60 L 483.87 485.00 L 485.48 485.38 L 489.01 486.21 L 492.54 487.03 L 494.15 487.41 L 496.61 488.18 L 498.59 489.15 L 500.16 490.29 L 501.39 491.61 L 502.31 493.15 L 502.84 494.84 L 502.99 496.70 L 502.72 498.80 L 502.21 500.49 L 501.38 501.98 L 500.22 503.31 L 498.80 504.36 L 497.24 505.07 L 495.52 505.44 L 496.12 506.94 L 497.44 510.22 L 498.76 513.51 L 499.35 515.00 L 498.06 514.72 L 495.66 514.19 L 494.37 513.90 Z M 493.02 491.37 L 491.62 491.04 L 489.02 490.42 L 487.62 490.09 L 487.25 491.65 L 486.44 495.08 L 485.64 498.51 L 485.27 500.06 L 486.67 500.39 L 489.28 501.00 L 490.68 501.32 L 492.72 501.61 L 494.33 501.51 L 495.61 501.08 L 496.69 500.30 L 497.50 499.21 L 498.04 497.72 L 498.19 495.92 L 497.81 494.47 L 496.91 493.25 L 495.39 492.21 L 493.02 491.37 Z" fill="#ffffff" fill-rule="nonzero" group-id="2" id="形状" node-id="65" stroke="none" target-height="30" target-width="24.989746" target-x="478" target-y="485"></path><path d="M 521.45 519.88 L 520.92 518.55 L 519.76 515.63 L 518.59 512.70 L 518.06 511.37 L 517.09 511.17 L 516.21 510.96 L 514.27 510.49 L 512.33 510.02 L 511.45 509.81 L 511.17 510.95 L 510.55 513.45 L 509.93 515.96 L 509.65 517.09 L 508.44 516.81 L 506.21 516.28 L 505.00 516.00 L 505.61 513.40 L 507.06 507.20 L 508.79 499.80 L 510.25 493.60 L 510.86 491.00 L 512.47 491.38 L 516.01 492.21 L 519.55 493.03 L 521.16 493.41 L 523.63 494.18 L 525.60 495.15 L 527.17 496.29 L 528.39 497.61 L 529.31 499.15 L 529.84 500.84 L 529.99 502.70 L 529.72 504.80 L 529.21 506.49 L 528.38 507.99 L 527.22 509.32 L 525.80 510.36 L 524.24 511.07 L 522.51 511.44 L 523.11 512.94 L 524.42 516.22 L 525.74 519.51 L 526.33 521.00 L 525.07 520.71 L 522.72 520.17 L 521.45 519.88 Z M 520.12 497.35 L 518.72 497.02 L 516.11 496.41 L 514.71 496.07 L 514.35 497.63 L 513.54 501.06 L 512.74 504.49 L 512.37 506.04 L 513.77 506.37 L 516.37 506.98 L 517.77 507.30 L 519.82 507.59 L 521.43 507.49 L 522.70 507.06 L 523.78 506.29 L 524.58 505.19 L 525.13 503.71 L 525.28 501.90 L 524.90 500.45 L 524.00 499.23 L 522.49 498.19 L 520.12 497.35 Z" fill="#ffffff" fill-rule="nonzero" group-id="2" id="形状" node-id="66" stroke="none" target-height="30" target-width="24.989746" target-x="505" target-y="491"></path><path d="M 532.38 509.28 L 533.19 506.86 L 534.32 504.77 L 535.76 502.98 L 537.50 501.47 L 539.45 500.32 L 541.64 499.50 L 543.95 499.07 L 546.40 499.04 L 549.04 499.43 L 551.58 500.26 L 553.77 501.38 L 555.65 502.80 L 557.27 504.51 L 558.51 506.42 L 559.40 508.54 L 559.90 510.79 L 559.98 513.16 L 559.62 515.70 L 558.81 518.14 L 557.69 520.23 L 556.25 522.02 L 554.52 523.53 L 552.56 524.68 L 550.36 525.50 L 548.05 525.93 L 545.60 525.96 L 542.96 525.56 L 540.42 524.74 L 538.23 523.61 L 536.34 522.19 L 534.73 520.47 L 533.49 518.56 L 532.60 516.43 L 532.10 514.18 L 532.02 511.81 L 532.38 509.28 Z M 554.88 514.59 L 555.12 512.79 L 555.00 511.03 L 554.53 509.29 L 553.73 507.66 L 552.66 506.27 L 551.31 505.07 L 549.75 504.17 L 548.09 503.61 L 546.30 503.37 L 544.51 503.49 L 542.81 503.95 L 541.20 504.75 L 539.77 505.86 L 538.62 507.18 L 537.72 508.75 L 537.14 510.47 L 536.91 512.21 L 537.03 514.02 L 537.50 515.77 L 538.28 517.34 L 539.38 518.78 L 540.73 519.97 L 542.25 520.85 L 543.96 521.43 L 545.74 521.71 L 547.53 521.62 L 549.27 521.17 L 550.89 520.38 L 552.31 519.27 L 553.48 517.89 L 554.35 516.31 L 554.88 514.59 Z" fill="#ffffff" fill-rule="nonzero" group-id="2" id="形状" node-id="67" stroke="none" target-height="26.923767" target-width="27.95636" target-x="532.02136" target-y="499.0379"></path><path d="M 578.37 532.90 L 577.84 531.57 L 576.67 528.65 L 575.51 525.72 L 574.98 524.39 L 574.49 524.29 L 573.99 524.19 L 573.11 523.99 L 571.17 523.54 L 569.24 523.08 L 568.36 522.88 L 568.09 524.00 L 567.50 526.48 L 566.91 528.95 L 566.65 530.08 L 565.44 529.80 L 563.20 529.28 L 562.00 529.00 L 562.61 526.40 L 564.07 520.20 L 565.80 512.80 L 567.26 506.60 L 567.87 504.00 L 569.48 504.38 L 573.01 505.21 L 576.54 506.03 L 578.15 506.41 L 580.61 507.18 L 582.59 508.15 L 584.16 509.29 L 585.39 510.61 L 586.31 512.15 L 586.84 513.84 L 586.99 515.70 L 586.72 517.80 L 586.20 519.49 L 585.38 520.98 L 584.21 522.31 L 582.80 523.36 L 581.24 524.06 L 579.52 524.44 L 580.12 525.94 L 581.44 529.22 L 582.76 532.51 L 583.35 534.00 L 582.06 533.72 L 579.66 533.19 L 578.37 532.90 Z M 577.02 510.35 L 575.62 510.03 L 573.02 509.42 L 571.62 509.09 L 571.25 510.65 L 570.44 514.07 L 569.64 517.49 L 569.27 519.04 L 570.67 519.38 L 573.28 519.99 L 574.68 520.32 L 576.73 520.61 L 578.34 520.50 L 579.61 520.08 L 580.69 519.30 L 581.50 518.21 L 582.04 516.72 L 582.19 514.92 L 581.81 513.46 L 580.91 512.24 L 579.39 511.19 L 577.02 510.35 Z" fill="#ffffff" fill-rule="nonzero" group-id="2" id="形状" node-id="68" stroke="none" target-height="30" target-width="24.989746" target-x="562" target-y="504"></path><path d="M 421.96 339.21 L 421.90 337.68 L 421.43 336.26 L 420.52 334.89 L 418.64 333.14 L 416.23 331.71 L 413.60 330.72 L 411.07 330.25 L 407.50 330.17 L 405.74 330.04 L 404.03 329.64 L 401.83 328.44 L 399.95 326.73 L 396.53 322.75 L 394.68 320.96 L 392.53 319.65 L 390.72 319.14 L 388.88 318.99 L 386.98 319.22 L 384.19 320.03 L 381.52 321.22 L 376.35 323.86 L 373.67 324.87 L 370.88 325.38 L 367.49 325.27 L 364.14 325.15 L 362.54 325.39 L 361.03 325.99 L 359.57 327.10 L 358.32 328.49 L 357.09 329.92 L 355.73 331.17 L 354.14 332.05 L 352.42 332.59 L 348.79 333.05 L 345.14 333.33 L 343.35 333.65 L 341.65 334.24 L 340.10 335.23 L 338.86 336.60 L 338.29 337.68 L 338.03 338.80 L 338.07 340.00 L 341.68 339.97 L 351.18 339.88 L 364.61 339.75 L 380.01 339.60 L 395.42 339.46 L 408.85 339.33 L 418.35 339.24 L 421.96 339.21 Z" fill="#ffffff" fill-rule="nonzero" group-id="2" id="路径" node-id="69" stroke="none" target-height="21.006165" target-width="83.92502" target-x="338.03232" target-y="318.99384"></path></g></svg>