<?xml version="1.0" standalone="no"?><!DOCTYPE svg PUBLIC "-//W3C//DTD SVG 1.1//EN" "http://www.w3.org/Graphics/SVG/1.1/DTD/svg11.dtd"><svg t="1706186223623" class="icon" viewBox="0 0 1024 1024" version="1.1" xmlns="http://www.w3.org/2000/svg" p-id="8398" xmlns:xlink="http://www.w3.org/1999/xlink" width="200" height="200"><path d="M511.099 512.569m-450 0a450 450 0 1 0 900 0 450 450 0 1 0-900 0Z" fill="#FFBDBD" p-id="8399"></path><path d="M800.198 528.373c-60.247-9.888-135.557-13.375-225.316-13.375-11.359 0-22.075 0.208-32.222 0.624 8.572-8.396 19.821-16.391 36.222-29.078 12.623-9.765 22.166-16.473 32.948-24.839 23.547-10.518 52.732-28.954 85.364-42.693 37.763-15.9 52.15-24.492 78.531-35.387 22.837-9.431 51.477-16.791 51.477-16.791s-40.032 6.903-67.545 18.027c-25.244 10.207-44.714 19.569-73.106 31.396-42.419 17.671-66.199 29.332-91.59 33.493-22.434 3.677-35.592 5.871-35.247 14.011 0.224 5.285 16.621 10.062 37.719 3.513a89.234 89.234 0 0 0 2.04-0.665 557.57 557.57 0 0 0-18.943 13.929c-19.418 14.905-40.817 25.455-52.05 35.826-4.111 0.266-8.117 0.573-12.027 0.918 1.759-4.146 3.88-9.942 6.113-17.125 8.506-13.069 9.975-15.825 17.362-33.348 9.967-23.643 12.259-32.927 16.684-64.296 4.419-31.326-6.426-63.905-9.27-87.137-7.414-60.563 32.754-98.879 32.754-98.879s-27.623 25.373-40.427 49.131c-4.291 7.962-8.985 20.6-13.467 35.185 6.947 23.386 13.228 50.676 13.667 74.78 0.339 18.579-0.808 36.426-2.821 52.915 1.8-16.67 2.701-34.719 2.072-53.494-1.367-40.79-19.614-90.463-29.107-114.979-10.876-28.086-14.01-56.795-14.01-56.795s1.861 23.483-8.25 52.5c-8.595 24.665-24.929 82.35-24.389 117.651 0.54 35.349 23.895 76.437 38.302 96.604 16.478 23.066 5.616 34.85 8.808 47.858-10.465 1.065-20.205 2.436-29.29 4.128-3.913-23.187-14.418-80.183-44.472-136.207-19.622-36.578-69.216-82.264-87.096-100.434-22.589-22.955-40.202-43.349-40.202-43.349s22.711 28.273 42.246 59.327c15.028 23.889 43.856 59.662 60.66 91.378 0.349 0.659 0.691 1.323 1.034 1.986 9.114 8.572 13.707 13.773 24.912 27.299 8.728 10.536 16.563 31.272 23.485 52.08-7.149-20.713-15.207-41.335-24.045-51.766-17.501-20.655-19.062-21.699-45.964-45.533-26.865-23.801-59.907-36.361-79.584-56.593-25.579-26.3-36.841-69.119-36.841-69.119s10.211 42.793 27.199 70.154c13.447 21.657 55.934 56.058 86.86 83.744 46.846 41.938 75.099 96.305 87.763 117.82a249.365 249.365 0 0 0-15.729 3.676c-0.46-0.606-0.946-1.235-1.45-1.879-2.103-3.839-4.798-8.395-8.066-13.516-4.868-16.833-6.148-20.107-15.84-39.313-13.075-25.909-19.488-34.728-43.772-61.754-24.251-26.988-61.644-42.16-84.455-57.063-59.465-38.849-61.722-100.896-61.722-100.896s0.688 41.942 11.628 70.306c3.666 9.505 11.155 22.825 20.534 37.416 26.182 11.59 55.294 26.64 76.981 44.199 16.778 13.585 31.723 27.872 44.769 41.866-13.375-13.951-28.688-28.182-45.873-41.672-37.191-29.194-95.554-50.897-124.743-61.2-33.44-11.804-61.328-30.538-61.328-30.538s22.257 15.91 39.977 45.936c3.873 6.563 9.284 15.186 15.713 24.801 32.624 7.025 81.047 19.426 115.467 39.199 55.647 31.966 96.324 72.576 116.039 96.442-19.799-23.64-60.986-64.174-117.215-95.826-41.201-23.193-102.188-35.759-132.605-41.5-34.847-6.576-65.261-20.847-65.261-20.847s34.349 16.03 58.451 41.291c22.817 23.914 49.328 43.958 84.565 64.638 35.285 20.708 91.557 42.288 125.95 44.747 24.435 1.747 32.825 11.475 41.249 18.449-53.2 17.53-79.282 51.616-105.185 107.004l-0.003 0.001s-10.617 19.93-11.39 39.088c-3.004 74.493-1.679 108.691-1.815 182.965 3.746 1.918 6.63 3.222 6.63 3.222s-1.261-122.534 1.211-184.796c0.619-15.602 5.959-33.264 11.738-38.957 35.436-18.942 86.454-27.421 143.95-24.599 51.762 2.54 104.664-18.737 130.924-25.454 50.286-12.862 54.666-16.082 107.286-23.986 75.07-11.276 152.372-10.429 186.593-41.406-37.93 21.707-73.402 13.233-120.144 5.561z" fill="#BA0505" p-id="8400"></path></svg>